<svg width="645" height="645" viewBox="0 0 645 645" fill="none" xmlns="http://www.w3.org/2000/svg">
<path d="M154.989 362.88C149.709 362.88 145.255 360.827 141.629 356.72C138.002 352.613 136.189 347.707 136.189 342C136.189 336.293 138.002 331.387 141.629 327.28C145.255 323.173 149.709 321.12 154.989 321.12C157.549 321.12 159.842 321.653 161.869 322.72C163.895 323.787 165.442 325.04 166.509 326.48V302H177.469V362H166.509V357.52C165.442 358.96 163.895 360.213 161.869 361.28C159.842 362.347 157.549 362.88 154.989 362.88ZM149.949 349.84C151.815 351.867 154.269 352.88 157.309 352.88C160.349 352.88 162.775 351.867 164.589 349.84C166.455 347.813 167.389 345.2 167.389 342C167.389 338.8 166.455 336.187 164.589 334.16C162.775 332.133 160.349 331.12 157.309 331.12C154.269 331.12 151.815 332.133 149.949 334.16C148.135 336.187 147.229 338.8 147.229 342C147.229 345.2 148.135 347.813 149.949 349.84ZM221.404 356.88C217.297 360.88 212.337 362.88 206.524 362.88C200.71 362.88 195.75 360.88 191.644 356.88C187.537 352.827 185.484 347.867 185.484 342C185.484 336.187 187.537 331.253 191.644 327.2C195.75 323.147 200.71 321.12 206.524 321.12C212.337 321.12 217.297 323.147 221.404 327.2C225.51 331.253 227.564 336.187 227.564 342C227.564 347.867 225.51 352.827 221.404 356.88ZM206.524 352.64C209.35 352.64 211.697 351.653 213.564 349.68C215.484 347.653 216.444 345.093 216.444 342C216.444 338.907 215.484 336.373 213.564 334.4C211.697 332.373 209.35 331.36 206.524 331.36C203.644 331.36 201.244 332.373 199.324 334.4C197.457 336.373 196.524 338.907 196.524 342C196.524 345.093 197.457 347.653 199.324 349.68C201.244 351.653 203.644 352.64 206.524 352.64ZM253.948 362.88C247.921 362.88 242.908 360.88 238.908 356.88C234.908 352.827 232.908 347.867 232.908 342C232.908 336.133 234.908 331.2 238.908 327.2C242.908 323.147 247.921 321.12 253.948 321.12C259.281 321.12 263.734 322.613 267.308 325.6C270.934 328.587 273.308 332.48 274.428 337.28H263.068C261.308 333.12 258.268 331.04 253.948 331.04C251.014 331.04 248.614 332.053 246.748 334.08C244.881 336.053 243.948 338.693 243.948 342C243.948 345.307 244.881 347.973 246.748 350C248.614 351.973 251.014 352.96 253.948 352.96C258.268 352.96 261.308 350.88 263.068 346.72H274.428C273.308 351.52 270.934 355.413 267.308 358.4C263.734 361.387 259.281 362.88 253.948 362.88ZM296.434 362.88C291.687 362.88 287.98 361.28 285.314 358.08C282.7 354.88 281.394 350.587 281.394 345.2V322H292.354V343.36C292.354 349.707 294.62 352.88 299.154 352.88C301.714 352.88 303.714 351.92 305.154 350C306.647 348.08 307.394 345.253 307.394 341.52V322H318.354V362H307.394V357.44C304.94 361.067 301.287 362.88 296.434 362.88Z" fill="#5CC2C2"/>
<path d="M329.945 305.2H340.505L358.985 330.56L377.465 305.2H388.025V362H376.425V325.04L358.985 348.96L341.545 325.04V362H329.945V305.2ZM404.501 315.44C402.635 315.44 401.008 314.773 399.621 313.44C398.235 312.053 397.541 310.4 397.541 308.48C397.541 306.56 398.235 304.933 399.621 303.6C401.008 302.213 402.635 301.52 404.501 301.52C406.475 301.52 408.128 302.213 409.461 303.6C410.848 304.933 411.541 306.56 411.541 308.48C411.541 310.4 410.848 312.053 409.461 313.44C408.128 314.773 406.475 315.44 404.501 315.44ZM399.061 362V322H410.021V362H399.061ZM420.546 362V322H431.506V326.56C433.959 322.933 437.772 321.12 442.946 321.12C447.746 321.12 451.506 322.72 454.226 325.92C456.999 329.067 458.386 333.28 458.386 338.56V362H447.426V340.4C447.426 337.467 446.812 335.2 445.586 333.6C444.359 331.947 442.626 331.12 440.386 331.12C437.719 331.12 435.559 332.08 433.906 334C432.306 335.92 431.506 338.747 431.506 342.48V362H420.546ZM484.676 362.88C479.396 362.88 474.943 360.827 471.316 356.72C467.69 352.613 465.876 347.707 465.876 342C465.876 336.293 467.69 331.387 471.316 327.28C474.943 323.173 479.396 321.12 484.676 321.12C487.236 321.12 489.53 321.653 491.556 322.72C493.583 323.787 495.13 325.04 496.196 326.48V302H507.156V362H496.196V357.52C495.13 358.96 493.583 360.213 491.556 361.28C489.53 362.347 487.236 362.88 484.676 362.88ZM479.636 349.84C481.503 351.867 483.956 352.88 486.996 352.88C490.036 352.88 492.463 351.867 494.276 349.84C496.143 347.813 497.076 345.2 497.076 342C497.076 338.8 496.143 336.187 494.276 334.16C492.463 332.133 490.036 331.12 486.996 331.12C483.956 331.12 481.503 332.133 479.636 334.16C477.823 336.187 476.916 338.8 476.916 342C476.916 345.2 477.823 347.813 479.636 349.84Z" fill="#424242"/>
<path d="M123 260.916C124.657 260.916 126 259.572 126 257.916C126 256.259 124.657 254.916 123 254.916V260.916ZM89 260.916H123V254.916H89V260.916Z" fill="#787878"/>
<path d="M89 289C89 290.657 90.3431 292 92 292C93.6569 292 95 290.657 95 289H89ZM95 289V255H89V289H95Z" fill="#787878"/>
<path d="M521 406.084C519.343 406.084 518 407.428 518 409.084C518 410.741 519.343 412.084 521 412.084V406.084ZM555 406.084H521V412.084H555V406.084Z" fill="#787878"/>
<path d="M555 378C555 376.343 553.657 375 552 375C550.343 375 549 376.343 549 378H555ZM549 378V412H555V378H549Z" fill="#787878"/>
</svg>